<?xml version="1.0" standalone="no"?><!DOCTYPE svg PUBLIC "-//W3C//DTD SVG 1.1//EN" "http://www.w3.org/Graphics/SVG/1.1/DTD/svg11.dtd"><svg t="1728639362205" class="icon" viewBox="0 0 1024 1024" version="1.1" xmlns="http://www.w3.org/2000/svg" p-id="4411" xmlns:xlink="http://www.w3.org/1999/xlink" width="200" height="200"><path d="M262.656 642.048c0 16.384-13.312 29.184-29.184 29.184-16.384 0-29.184-13.312-29.184-29.184v-125.44c0-16.384 13.312-29.184 29.184-29.184h358.912c10.24 0 19.968 5.632 25.6 14.848 5.12 9.216 5.12 19.968 0 29.184-5.12 9.216-14.848 14.848-25.6 14.848H262.656v95.744z m414.208-95.744c-16.384 0-29.184-13.312-29.184-29.184 0-16.384 13.312-29.184 29.184-29.184h16.896c16.384 0 29.184 13.312 29.184 29.184 0 16.384-13.312 29.184-29.184 29.184h-16.896z m69.12-29.696c0-7.68 3.072-15.36 8.704-20.48 5.632-5.632 12.8-8.704 20.48-8.704h20.48c16.384 0 29.184 13.312 29.184 29.184v125.44c0 16.384-13.312 29.184-29.184 29.184-16.384 0-29.184-13.312-29.184-29.184v-97.28c-12.288-4.096-20.48-15.36-20.48-28.16zM485.376 399.872h58.368v88.064H485.376V399.872z m0 0" fill="#2c2c2c" p-id="4412"></path><path d="M354.304 107.008h320c32.256 0 58.368 26.112 58.368 58.368v175.616c0 32.256-26.112 58.368-58.368 58.368H354.304c-15.36 0-30.208-6.144-41.472-16.896-10.752-10.752-17.408-26.112-17.408-41.472V165.376c0-15.36 6.144-30.208 17.408-41.472 11.264-10.752 26.112-16.896 41.472-16.896z m4.096 58.368v175.616h312.32V165.376H358.4z m-253.952 468.48h257.536c32.256 0 58.368 26.112 58.368 58.368v175.616c0 32.256-26.112 58.368-58.368 58.368H104.448c-32.256 0.512-58.368-25.6-58.368-57.856v-175.616c0-32.768 26.112-58.88 58.368-58.88z m4.096 58.368v175.616H358.4v-175.616H108.544z m558.08-58.368h257.536c32.256 0 58.368 26.112 58.368 58.368v175.616c0 32.256-26.112 58.368-58.368 58.368h-257.536c-32.256 0-58.368-26.112-58.368-58.368v-175.616c0-32.256 26.112-58.368 58.368-58.368z m4.096 58.368v175.616h249.856v-175.616H670.72z m0 0" fill="#2c2c2c" p-id="4413"></path></svg>