<?xml version="1.0" standalone="no"?><!DOCTYPE svg PUBLIC "-//W3C//DTD SVG 1.1//EN" "http://www.w3.org/Graphics/SVG/1.1/DTD/svg11.dtd"><svg t="1728912124466" class="icon" viewBox="0 0 1024 1024" version="1.1" xmlns="http://www.w3.org/2000/svg" p-id="4330" xmlns:xlink="http://www.w3.org/1999/xlink" width="200" height="200"><path d="M904.222931 839.252565a100.723262 100.723262 0 1 1 100.106409-100.723262 99.357373 99.357373 0 0 1-100.106409 100.723262z m-784.108121 0a100.723262 100.723262 0 0 1 0-201.468554 100.723262 100.723262 0 0 1 0 201.468554zM503.907448 201.228422a100.524988 100.524988 0 0 1-100.106408-103.080521A99.445495 99.445495 0 0 1 503.907448 0.002203a100.524988 100.524988 0 0 1 100.018287 103.05849 99.445495 99.445495 0 0 1-100.018287 98.167729zM971.988625 541.334659a32.847415 32.847415 0 1 1-65.69483 0c0-152.010172-85.390062-297.411206-210.214647-356.893447a22.51513 22.51513 0 0 1-13.218276-26.436552 70.012801 70.012801 0 0 1 13.218276-33.04569c13.218276-13.218276 19.717261-6.609138 32.847416 0a483.899047 483.899047 0 0 1 243.062061 416.375689z m-735.817353 389.939136a462.265136 462.265136 0 0 0 275.909477 92.527931 478.986255 478.986255 0 0 0 262.757293-85.918793c13.218276-6.609138 13.218276-13.218276 13.218276-33.045689a41.020716 41.020716 0 0 0-19.717262-26.436552 22.801526 22.801526 0 0 0-32.847415 6.609138 391.701573 391.701573 0 0 1-223.344801 72.700517 360.153955 360.153955 0 0 1-229.909877-79.309655 31.591679 31.591679 0 0 0-45.977569 6.609138 39.897163 39.897163 0 0 0 0 46.263965z m59.217875-806.248733A470.526558 470.526558 0 0 0 52.283025 541.334659a30.18173 30.18173 0 0 0 26.282338 33.045689c19.695231 0 39.412492-6.609138 39.412493-33.045689a406.484012 406.484012 0 0 1 210.214646-356.893447 22.51513 22.51513 0 0 0 13.218276-26.436552 69.99077 69.99077 0 0 0-13.218276-33.04569 29.190359 29.190359 0 0 0-32.847415 0z m303.778009 331.360144a100.392805 100.392805 0 0 1-98.630368-102.08915V352.753924a34.235334 34.235334 0 0 1-10.111981 1.542132 36.680715 36.680715 0 0 1 0-73.29534 34.940309 34.940309 0 0 1 28.132897 14.451982 97.528845 97.528845 0 0 1 80.609452-43.223762 102.155242 102.155242 0 0 1 0 204.15627z m-6.873503 15.729748l-11.01523 36.768837c9.186702 3.81127 43.664371 17.756551 43.664371 17.756551 50.229448 12.226905 48.467011 40.558076 48.467011 40.558076a30.137669 30.137669 0 0 1-28.74975 17.315942 49.987113 49.987113 0 0 1 38.112696 44.809955h0.352487v215.523987h-19.254622v-215.523987h0.198274a27.824471 27.824471 0 0 0-55.186301 0.96934 10.55259 10.55259 0 0 1 0.396548 2.841929 9.935737 9.935737 0 0 1-9.715433 10.134012 9.781524 9.781524 0 0 1-9.384975-7.600509h-0.352488v-1.718376-0.815127a10.486499 10.486499 0 0 1 0.220305-1.982741 51.198788 51.198788 0 0 1 32.054319-44.876047 390.798324 390.798324 0 0 1-56.508129-3.85533c-24.343658 74.330771 12.93188 175.714947 12.931879 175.714946-2.797868 1.630254-18.549647 4.868732-21.325485 6.344773l-13.636854 43.444066a17.183759 17.183759 0 0 1 11.191473 16.324571 16.875332 16.875332 0 0 1-16.478783 17.24985h-5.463554v0.132183h-37.451782v-1.189645a17.205789 17.205789 0 0 1-11.01523-16.236449 17.624368 17.624368 0 0 1 3.789239-11.01523l8.305484-34.433608a201.358402 201.358402 0 0 1-40.051376 3.260508l-19.827414 53.115438a17.095637 17.095637 0 0 1 12.667514 16.76518 16.875332 16.875332 0 0 1-16.478783 17.183758h-37.451782a16.875332 16.875332 0 0 1-16.478784-17.249849 17.910764 17.910764 0 0 1 0.94731-5.74995h-0.286396l20.422236-73.29534a471.760264 471.760264 0 0 1-51.353001-19.100408c-29.190359-312.832528 149.102151-350.019944 149.102151-350.019944 43.488127 64.284881 94.642855 68.470669 94.642855 68.470669z" fill="#ef197c" p-id="4331"></path></svg>