<?xml version="1.0" standalone="no"?><!DOCTYPE svg PUBLIC "-//W3C//DTD SVG 1.1//EN" "http://www.w3.org/Graphics/SVG/1.1/DTD/svg11.dtd"><svg t="1728961150167" class="icon" viewBox="0 0 1024 1024" version="1.1" xmlns="http://www.w3.org/2000/svg" p-id="15186" xmlns:xlink="http://www.w3.org/1999/xlink" width="200" height="200"><path d="M514.027102 507.277061m-501.55102 0a501.55102 501.55102 0 1 0 1003.10204 0 501.55102 501.55102 0 1 0-1003.10204 0Z" fill="#1677FF" p-id="15187"></path><path d="M782.837551 273.261714c74.689306 74.668408 77.949388 193.724082 9.738449 272.300408l0.20898 0.167184-3.719837 3.761633a203.337143 203.337143 0 0 1-6.227592 6.499265L531.288816 807.538939a28.797388 28.797388 0 0 1-5.140898 4.096 28.692898 28.692898 0 0 1-36.383347-3.469061L238.215837 556.617143a199.909878 199.909878 0 0 1 0-282.749388c74.563918-74.563918 193.410612-77.907592 271.966041-9.989224a199.909878 199.909878 0 0 1 272.655673 9.383183z m-247.181061 119.682613h-50.259592a6.373878 6.373878 0 0 0-6.373878 6.352979v69.109551h-69.130449c-3.009306 0-5.537959 2.110694-6.185795 4.931919l-0.167184 1.462857v50.259591c0 3.531755 2.842122 6.373878 6.352979 6.373878h69.130449v69.130449c0 3.009306 2.089796 5.537959 4.911021 6.206694l1.462857 0.167184h50.259592a6.373878 6.373878 0 0 0 6.373877-6.373878V531.435102h69.130449c3.009306 0 5.537959-2.089796 6.185796-4.91102l0.188082-1.462858V474.801633a6.373878 6.373878 0 0 0-6.373878-6.373878l-69.130449-0.020898v-69.109551c0-3.009306-2.089796-5.537959-4.91102-6.185796l-1.462857-0.167183z" fill="#FFFFFF" p-id="15188"></path></svg>