<?xml version="1.0" standalone="no"?><!DOCTYPE svg PUBLIC "-//W3C//DTD SVG 1.1//EN" "http://www.w3.org/Graphics/SVG/1.1/DTD/svg11.dtd"><svg t="1728444229234" class="icon" viewBox="0 0 1024 1024" version="1.1" xmlns="http://www.w3.org/2000/svg" p-id="5861" xmlns:xlink="http://www.w3.org/1999/xlink" width="200" height="200"><path d="M384 512v96l-96-16zM720 608H384v-96h176c32 0 160 96 160 96z" fill="#5D9CEC" p-id="5862"></path><path d="M560 512h-64c32 0 160 96 160 96h64s-128-96-160-96z" fill="#4A89DC" p-id="5863"></path><path d="M864 807.36a40 40 0 0 0-80 0 40 40 0 0 0 80 0zM824 720a87.952 87.952 0 0 1 84.64 112c-10.4 36.96-44.336 64-84.64 64s-74.24-27.04-84.64-64a87.952 87.952 0 0 1 84.64-112z" fill="#656D78" p-id="5864"></path><path d="M824 807.36m-40 0a40 40 0 1 0 80 0 40 40 0 1 0-80 0Z" fill="#CCD1D9" p-id="5865"></path><path d="M216 807.36m-40 0a40 40 0 1 0 80 0 40 40 0 1 0-80 0Z" fill="#CCD1D9" p-id="5866"></path><path d="M128 808c0-48.64 39.36-88 88-88a87.952 87.952 0 0 1 84.64 112c-10.4 36.96-44.336 64-84.64 64s-74.24-27.04-84.64-64A85.28 85.28 0 0 1 128 808z m48-0.64a40 40 0 0 0 80 0 40 40 0 0 0-80 0z" fill="#656D78" p-id="5867"></path><path d="M1008 832h-99.36a87.952 87.952 0 0 0-84.64-112 87.952 87.952 0 0 0-84.64 112H300.64a87.952 87.952 0 0 0-84.64-112 87.952 87.952 0 0 0-84.64 112H64l-48-48v-112l16-16v-48h80s192-96 256-96h16l-96 80 96 16h336c208 16 288 48.32 288 48.32L992 672l16 32v128z" fill="#CCD1D9" p-id="5868"></path><path d="M958.688 642h0.048zM1008 656.32s-15.152-6.112-49.264-14.32L928 672l16 32v128h64v-128l-16-32 16-15.68z" fill="#AAB2BD" p-id="5869"></path><path d="M824 863.36c-30.88 0-56-25.12-56-56s25.12-56 56-56 56 25.12 56 56-25.12 56-56 56z m0-80c-13.232 0-24 10.768-24 24s10.768 24 24 24 24-10.768 24-24-10.768-24-24-24z" p-id="5870"></path><path d="M824 912a104.256 104.256 0 0 1-100.048-75.664A101.952 101.952 0 0 1 720 808c0-57.344 46.656-104 104-104s104 46.656 104 104c0 9.76-1.344 19.344-4 28.464C911.504 880.896 870.352 912 824 912z m0-176a72.08 72.08 0 0 0-72 72 72.192 72.192 0 0 0 72 72 72.128 72.128 0 0 0 72-72c0-39.696-32.304-72-72-72zM216 863.36c-30.88 0-56-25.12-56-56s25.12-56 56-56 56 25.12 56 56-25.12 56-56 56z m0-80c-13.232 0-24 10.768-24 24s10.768 24 24 24 24-10.768 24-24-10.768-24-24-24z" p-id="5871"></path><path d="M216 912a104.256 104.256 0 0 1-100.048-75.664A101.952 101.952 0 0 1 112 808c0-57.344 46.656-104 104-104s104 46.656 104 104c0 9.76-1.344 19.344-4 28.464C303.504 880.896 262.352 912 216 912z m0-176A72.08 72.08 0 0 0 144 808a72.192 72.192 0 0 0 72 72 72.128 72.128 0 0 0 72-72c0-39.696-32.304-72-72-72z" p-id="5872"></path><path d="M1008 848h-99.36a16 16 0 1 1 0-32H992v-108.224l-14.32-28.624a16.032 16.032 0 0 1 0.656-15.504c-36.8-10.32-118.56-28.864-259.584-39.696a15.968 15.968 0 0 1-8.352-3.152C650.64 575.984 575.936 528 560 528H368c-49.376 0-196.368 68.08-248.848 94.32A16.032 16.032 0 0 1 112 624H48v32c0 4.256-1.68 8.32-4.688 11.312L32 678.624v98.752l43.312 43.312a15.984 15.984 0 1 1-22.624 22.624l-48-48A15.936 15.936 0 0 1 0 784v-112c0-4.256 1.68-8.32 4.688-11.312L16 649.376V608a16 16 0 0 1 16-16h76.24c31.52-15.632 196.704-96 259.76-96h192c33.36 0 130.992 70.416 165.856 96.4 204.656 16.128 284.8 47.712 288.128 49.072a15.936 15.936 0 0 1 9.696 11.712 15.952 15.952 0 0 1-4.48 14.528l-7.68 7.536 10.8 21.584c1.104 2.224 1.68 4.688 1.68 7.168v128a16 16 0 0 1-16 16z" p-id="5873"></path><path d="M739.36 848H300.64a16 16 0 1 1 0-32h438.72a16 16 0 1 1 0 32zM720 624H384a16 16 0 0 1-2.624-0.224l-96-16a16 16 0 0 1-7.632-28.08l96-80a16.016 16.016 0 0 1 20.496 24.592l-69.2 57.664 60.288 10.048H720a16 16 0 1 1 0 32zM416 688h-32a16 16 0 1 1 0-32h32a16 16 0 1 1 0 32zM131.36 848H64a16 16 0 1 1 0-32h67.36a16 16 0 1 1 0 32z" p-id="5874"></path><path d="M384 624a16 16 0 0 1-16-16v-96a16 16 0 1 1 32 0v96a16 16 0 0 1-16 16zM480 528a16 16 0 0 1-16-16v-64a16 16 0 1 1 32 0v64a16 16 0 0 1-16 16zM521.936 424.64a16 16 0 0 1-14.016-8.256C502.336 406.288 491.632 400 480 400s-22.336 6.288-27.92 16.384a16.016 16.016 0 0 1-28-15.488C435.328 380.592 456.752 368 480 368s44.672 12.592 55.92 32.896a15.984 15.984 0 0 1-13.984 23.744z" p-id="5875"></path><path d="M577.776 393.28a16 16 0 0 1-13.968-8.176C546.816 354.816 514.704 336 480 336s-66.816 18.816-83.808 49.104a16 16 0 0 1-27.904-15.648C390.928 329.072 433.728 304 480 304s89.072 25.072 111.712 65.456a15.984 15.984 0 0 1-13.936 23.824z" p-id="5876"></path><path d="M326.384 362.08a16.032 16.032 0 0 1-13.952-23.808A192.208 192.208 0 0 1 480 240c69.408 0 133.6 37.6 167.552 98.096a15.984 15.984 0 1 1-27.904 15.648A160.32 160.32 0 0 0 480 272a160.144 160.144 0 0 0-139.632 81.888 16 16 0 0 1-13.984 8.192z" p-id="5877"></path><path d="M689.616 330.88c-5.616 0-11.04-2.96-13.984-8.192C636.032 251.952 561.056 208 480 208s-156.032 43.952-195.632 114.688c-4.336 7.68-14.096 10.448-21.776 6.16a16.016 16.016 0 0 1-6.16-21.776C301.696 226.224 387.36 176 480 176s178.304 50.224 223.568 131.056a16 16 0 0 1-13.952 23.824z" p-id="5878"></path><path d="M745.456 299.68c-5.616 0-11.04-2.96-13.984-8.192A288.4 288.4 0 0 0 480 144a288.576 288.576 0 0 0-251.488 147.344 16 16 0 1 1-27.904-15.648A320.592 320.592 0 0 1 480 112a320.48 320.48 0 0 1 279.408 163.872 16 16 0 0 1-13.952 23.808z" p-id="5879"></path></svg>