<?xml version="1.0" standalone="no"?><!DOCTYPE svg PUBLIC "-//W3C//DTD SVG 1.1//EN" "http://www.w3.org/Graphics/SVG/1.1/DTD/svg11.dtd"><svg t="1728817342376" class="icon" viewBox="0 0 1024 1024" version="1.1" xmlns="http://www.w3.org/2000/svg" p-id="6735" xmlns:xlink="http://www.w3.org/1999/xlink" width="200" height="200"><path d="M731.622861 372.1728l-123.3408-17.92-55.2448-111.7696a45.4144 45.4144 0 0 0-40.96-25.6 45.4144 45.4144 0 0 0-40.96 25.6L415.872461 354.2528l-123.3408 17.92a45.7728 45.7728 0 0 0-25.344 78.0288l89.2416 87.04-21.0432 122.88a45.7216 45.7216 0 0 0 66.56 48.2304L512.077261 650.24l110.336 57.9584a45.6704 45.6704 0 0 0 66.56-48.1792l-21.0944-122.88 89.2928-87.04a45.7728 45.7728 0 0 0-25.6-78.0288z m-128.4096 121.7024a45.6704 45.6704 0 0 0-13.1584 40.4992l13.4144 78.0288-70.0928-36.8128a45.6192 45.6192 0 0 0-42.5984 0l-70.0928 36.864 13.4144-78.0288a45.6192 45.6192 0 0 0-13.1584-40.4992l-56.7296-55.296 78.336-11.4176a46.08 46.08 0 0 0 34.5088-24.9856l35.0208-71.0144 35.0208 70.9632a45.7728 45.7728 0 0 0 34.4576 25.0368L659.942861 438.6304z" p-id="6736" fill="#f92105"></path><path d="M957.517261 248.1152a37.9392 37.9392 0 0 0-42.1376-29.7984c-80.0768 10.24-103.936-92.7744-104.9088-97.024a38.0416 38.0416 0 0 0-24.5248-27.904L527.437261 2.1504a38.2464 38.2464 0 0 0-15.36-2.048 38.2464 38.2464 0 0 0-15.36 2.048L238.362061 93.3888a38.0416 38.0416 0 0 0-24.5248 27.904c-0.9216 4.4032-23.9616 107.52-104.9088 97.28a37.9904 37.9904 0 0 0-42.2912 29.5424c-1.1776 5.7344-29.184 141.9776 9.0624 305.5104 35.84 152.2176 137.3184 356.9664 419.84 467.7632a38.9632 38.9632 0 0 0 13.8752 2.6112h5.12a38.9632 38.9632 0 0 0 13.8752-2.6112c282.4192-110.7968 384-315.5456 419.84-467.7632 38.2976-163.5328 10.2912-299.776 9.2672-305.5104z m-83.7632 290.8672c-45.568 190.5664-167.1168 327.3728-361.6768 406.9888-194.56-79.616-316.1088-216.4224-361.5232-406.9888a722.2784 722.2784 0 0 1-13.9264-244.5312c82.688-8.0896 128-81.5104 145.7664-135.936l229.6832-81.0496L741.709261 158.72c17.7152 54.4256 63.0784 128 145.8176 135.936a722.2272 722.2272 0 0 1-13.9264 244.3264z" p-id="6737" fill="#f92105"></path></svg>