<?xml version="1.0" standalone="no"?><!DOCTYPE svg PUBLIC "-//W3C//DTD SVG 1.1//EN" "http://www.w3.org/Graphics/SVG/1.1/DTD/svg11.dtd"><svg t="1728962042329" class="icon" viewBox="0 0 1024 1024" version="1.1" xmlns="http://www.w3.org/2000/svg" p-id="19604" xmlns:xlink="http://www.w3.org/1999/xlink" width="200" height="200"><path d="M814.1 905.1H211.9V293.2h602.2v611.9z m-552.2-50h502.2V343.2H261.9v511.9z" fill="#040000" p-id="19605"></path><path d="M716.9 444.6h-50V293.2c0-84.8-69-153.9-153.9-153.9-84.8 0-153.9 69-153.9 153.9v151.4h-50V293.2c0-54.3 21.3-105.4 59.9-144s89.7-59.9 144-59.9 105.4 21.3 144 59.9 59.9 89.7 59.9 144v151.4z" fill="#040000" p-id="19606"></path><path d="M513 768.3l-139-139 139-139 139 139-139 139z m-68.3-139l68.3 68.3 68.3-68.3L513 561l-68.3 68.3z" fill="#040000" p-id="19607"></path></svg>