<?xml version="1.0" standalone="no"?><!DOCTYPE svg PUBLIC "-//W3C//DTD SVG 1.1//EN" "http://www.w3.org/Graphics/SVG/1.1/DTD/svg11.dtd"><svg t="1728962364365" class="icon" viewBox="0 0 1024 1024" version="1.1" xmlns="http://www.w3.org/2000/svg" p-id="27734" xmlns:xlink="http://www.w3.org/1999/xlink" width="200" height="200"><path d="M512 199.4c35.6 0 64.5 28.9 64.5 64.5s-28.9 64.5-64.5 64.5-64.5-28.9-64.5-64.5 28.9-64.5 64.5-64.5z m187.1 25.8h-43.8c-3.4-12.5-8.3-24.3-14.6-35.2l31-31c5-5 5-13.2 0-18.2l-36.5-36.5c-5-5-13.2-5-18.2 0l-31 31c-10.9-6.3-22.7-11.2-35.2-14.6V76.8c0-7.1-5.8-12.9-12.9-12.9h-51.6c-7.1 0-12.9 5.8-12.9 12.9v43.8c-12.5 3.4-24.3 8.3-35.2 14.6l-31-31c-5-5-13.2-5-18.2 0l-36.5 36.5c-5 5-5 13.2 0 18.2l31 31c-6.3 10.9-11.3 22.7-14.6 35.2h-43.8c-7.1 0-12.9 5.8-12.9 12.9v51.6c0 7.1 5.8 12.9 12.9 12.9h43.8c3.4 12.5 8.3 24.3 14.6 35.2l-31 31c-5 5-5 13.2 0 18.2l36.5 36.5c5 5 13.2 5 18.2 0l31-31c10.9 6.3 22.7 11.2 35.2 14.6v44c0 7.1 5.8 12.9 12.9 12.9h51.6c7.1 0 12.9-5.8 12.9-12.9v-43.8c12.5-3.4 24.3-8.3 35.2-14.6l31 31c5 5 13.2 5 18.2 0l36.5-36.5c5-5 5-13.2 0-18.2l-31-31c6.3-10.9 11.3-22.7 14.6-35.2h43.8c7.1 0 12.9-5.8 12.9-12.9v-51.6c0-7.2-5.8-13-12.9-13zM336.7 687.6v144.2h-40.3v-0.2h-144v0.2H112V687.6h224.7m574.6 0.2V832H871v-0.2H727v0.2h-40.3V687.8h224.6m-574.6-48.2H112c-26.5 0-48 21.5-48 48v144.2c0 26.5 21.5 48 48 48h88.3v-0.2h48v0.2h88.3c26.5 0 48-21.5 48-48V687.6c0.1-26.5-21.4-48-47.9-48z m574.6 0.2H686.7c-26.5 0-48 21.5-48 48V832c0 26.5 21.5 48 48 48H775v-0.2h48v0.2h88.3c26.5 0 48-21.5 48-48V687.8c0-26.5-21.5-48-48-48z m-662.9 240h-48v31.7h48v-31.7z m574.6 0.3h-48v31.7h48v-31.7z m-558.5 31.5h-16.1v0.1h-48v-0.1h-15.9c-13.3 0-24 10.7-24 24s10.7 24 24 24h80c13.3 0 24-10.7 24-24s-10.8-24-24-24z m574.6 0.2H823v0.1h-48v-0.1h-15.9c-13.3 0-24 10.7-24 24s10.7 24 24 24h80c13.3 0 24-10.7 24-24s-10.8-24-24-24zM576 736H447.3c-17.6 0-32 14.4-32 32s14.4 32 32 32H576c17.6 0 32-14.4 32-32s-14.4-32-32-32zM807.2 552.6l-64.3-111.4c-8.8-15.2-28.5-20.5-43.7-11.7-15.2 8.8-20.5 28.5-11.7 43.7l64.3 111.4c8.8 15.2 28.5 20.5 43.7 11.7 15.2-8.7 20.5-28.4 11.7-43.7zM326.2 429.5c-15.2-8.8-34.9-3.5-43.7 11.7l-64.3 111.4c-8.8 15.2-3.5 34.9 11.7 43.7 15.2 8.8 34.9 3.5 43.7-11.7l64.3-111.4c8.8-15.2 3.6-34.9-11.7-43.7z" p-id="27735"></path></svg>