<?xml version="1.0" standalone="no"?><!DOCTYPE svg PUBLIC "-//W3C//DTD SVG 1.1//EN" "http://www.w3.org/Graphics/SVG/1.1/DTD/svg11.dtd"><svg t="1728960987974" class="icon" viewBox="0 0 1024 1024" version="1.1" xmlns="http://www.w3.org/2000/svg" p-id="12182" xmlns:xlink="http://www.w3.org/1999/xlink" width="200" height="200"><path d="M768 0H256C112.64 0 0 112.64 0 256v512c0 143.36 112.64 256 256 256h512c143.36 0 256-112.64 256-256V256c0-143.36-112.64-256-256-256z m-256 819.2S-35.84 501.76 225.28 256C353.28 138.24 512 256 512 256s158.72-117.76 286.72 0C1059.84 501.76 512 819.2 512 819.2z m102.4-512s10.24 30.72 51.2 102.4 51.2 102.4 51.2 102.4 97.28-76.8 51.2-153.6c-46.08-76.8-153.6-51.2-153.6-51.2z" fill="#fc0e75" p-id="12183"></path></svg>