<?xml version="1.0" standalone="no"?><!DOCTYPE svg PUBLIC "-//W3C//DTD SVG 1.1//EN" "http://www.w3.org/Graphics/SVG/1.1/DTD/svg11.dtd"><svg t="1728962307152" class="icon" viewBox="0 0 1024 1024" version="1.1" xmlns="http://www.w3.org/2000/svg" p-id="25533" xmlns:xlink="http://www.w3.org/1999/xlink" width="200" height="200"><path d="M342.784 693.76a42.688 42.688 0 0 1 30.208-52.224l0.32-0.128a42.688 42.688 0 0 1 22.08 82.432l-0.32 0.128a42.688 42.688 0 0 1-52.288-30.144zM628.992 726.848a42.688 42.688 0 0 0 22.08 82.432l0.32-0.064a42.688 42.688 0 0 0-22.08-82.432l-0.32 0.064z" fill="#333333" p-id="25534"></path><path d="M309.312 85.312a32 32 0 0 1 32-32h341.376a32 32 0 1 1 0 64h-30.272v74.112c0 76.16 0.192 108.736 8.128 139.712 7.872 31.04 23.36 59.904 59.904 127.04l49.92 91.648c44.352 81.6 79.488 146.112 98.432 198.016 19.328 52.8 25.088 101.12-1.152 144.64l-0.064 0.064-0.64 0.96v0.128c-26.56 43.136-72.192 60.8-128.32 68.992-55.296 8.064-129.6 8.064-223.808 8.064h-5.632c-94.208 0-168.448 0-223.808-8.064-56.128-8.192-101.76-25.856-128.256-68.992l-0.128-0.128-0.64-1.024c-26.24-43.52-20.48-91.84-1.152-144.64 18.944-51.904 54.016-116.48 98.496-198.016l35.392-65.088a31.872 31.872 0 0 1 7.104-13.056l7.36-13.44c36.48-67.2 52.032-96 59.904-127.104 7.936-30.976 8.128-63.616 8.128-139.712V117.312h-30.272a32 32 0 0 1-32-32z m39.04 424.512l-37.12 68.032c-46.08 84.736-78.848 145.024-95.936 191.872-16.96 46.464-15.296 71.104-4.16 89.6v0.128l0.512 0.64c11.392 18.688 33.024 31.936 82.944 39.168 50.176 7.296 119.808 7.424 217.408 7.424 97.6 0 167.232-0.128 217.408-7.424 49.856-7.232 71.488-20.48 82.944-39.04l0.448-0.832c11.2-18.56 12.864-43.136-4.096-89.6-17.088-46.912-49.856-107.2-96-191.936l-13.44-24.704a135.488 135.488 0 0 1-50.048 27.456c-42.432 12.672-94.208 6.336-153.088-27.264-41.344-23.552-74.88-41.6-102.592-48.896-13.376-3.456-23.104-3.776-30.336-2.24a31.296 31.296 0 0 0-14.912 7.616z m318.912-15.488l-5.248-9.6c-33.664-61.888-53.376-98.048-63.488-137.728-10.112-39.744-10.112-80.768-10.112-151.04V117.376H435.584v78.72c0 70.208 0 111.232-10.112 150.976-7.296 28.608-19.52 55.36-38.4 91.2 7.68 0.896 15.232 2.432 22.592 4.352 37.376 9.728 78.464 32.576 118.208 55.232 47.808 27.264 81.344 27.968 102.976 21.504 16-4.8 28.16-14.336 36.416-24.96z" fill="#333333" p-id="25535"></path></svg>