<?xml version="1.0" standalone="no"?><!DOCTYPE svg PUBLIC "-//W3C//DTD SVG 1.1//EN" "http://www.w3.org/Graphics/SVG/1.1/DTD/svg11.dtd"><svg t="1728960858627" class="icon" viewBox="0 0 1045 1024" version="1.1" xmlns="http://www.w3.org/2000/svg" p-id="9397" xmlns:xlink="http://www.w3.org/1999/xlink" width="204.1015625" height="200"><path d="M225.834667 85.333333a85.333333 85.333333 0 0 0-85.333334 85.333334v682.666666a85.333333 85.333333 0 0 0 85.333334 85.333334h661.333333a21.333333 21.333333 0 0 0 21.333333-21.333334v-21.333333a21.333333 21.333333 0 0 0-21.333333-21.333333h-618.666667a42.666667 42.666667 0 0 1 0-85.333334h618.666667a21.333333 21.333333 0 0 0 21.333333-21.333333V128a42.666667 42.666667 0 0 0-42.666666-42.666667h-640z m213.333333 256.512c0-18.709333 20.650667-30.037333 36.437333-19.989333l166.805334 106.154667a23.701333 23.701333 0 0 1 0 39.978666l-166.826667 106.154667c-15.786667 10.048-36.416-1.28-36.416-19.989333v-212.309334z" fill="#ec9009" p-id="9398"></path></svg>