<?xml version="1.0" standalone="no"?><!DOCTYPE svg PUBLIC "-//W3C//DTD SVG 1.1//EN" "http://www.w3.org/Graphics/SVG/1.1/DTD/svg11.dtd"><svg t="1728962198545" class="icon" viewBox="0 0 1024 1024" version="1.1" xmlns="http://www.w3.org/2000/svg" p-id="21532" xmlns:xlink="http://www.w3.org/1999/xlink" width="200" height="200"><path d="M1001.28 607.104c0-69.12-31.488-133.952-88.768-182.336-51.008-43.136-117.12-68.416-188.032-72.32-15.552-71.296-59.712-136.128-124.608-182.784-65.408-47.168-148.672-72.96-234.24-72.96-96.576 0-187.52 32-256.256 90.048C39.168 246.144 0.256 325.632 0.256 410.496a275.2 275.2 0 0 0 30.72 126.208 312.576 312.576 0 0 0 73.152 93.248l-25.088 139.392a34.176 34.176 0 0 0 45.312 38.208l229.12-83.2c27.84-0.64 54.4-2.56 79.552-6.08 12.16 26.048 28.928 48.96 50.24 68.352 52.736 48 130.56 73.344 231.424 75.52 0.64 0 1.024 0 1.472 0.128l167.68 39.232a33.536 33.536 0 0 0 30.208-7.488 34.432 34.432 0 0 0 11.648-28.928l-7.552-80.832c52.992-47.04 83.136-110.976 83.136-177.152z m-654.208 51.072l-5.568 0.256-187.008 67.904 17.28-95.296a47.04 47.04 0 0 0-16.32-44.544c-56.96-46.912-88.32-109.248-88.32-175.552 0-136.448 133.952-247.68 298.816-247.68 140.608 0 260.352 80.064 291.2 192.32a312.832 312.832 0 0 0-158.464 69.504c-57.152 48.32-88.768 113.152-88.768 182.336 0 16.128 1.344 31.872 3.712 46.848-21.12 2.112-43.392 3.584-66.56 3.904z m517.568 84.672a36.864 36.864 0 0 0-13.952 32.64l4.864 51.456-123.84-28.864a52.48 52.48 0 0 0-15.296-2.048c-156.992-3.2-240-68.608-240-188.864 0-104.064 102.848-188.8 229.312-188.8 126.4 0 228.928 84.736 228.928 188.8 0 51.52-24.96 99.712-70.016 135.68zM196.864 357.888a45.312 45.312 0 1 0 90.688 0 45.312 45.312 0 0 0-90.688 0z m240.192 4.48a45.312 45.312 0 1 0 90.688 0 45.312 45.312 0 0 0-90.688 0z m129.92 212.992a37.76 37.76 0 1 0 75.52 0 37.76 37.76 0 0 0-75.52 0z m169.088 0a37.76 37.76 0 1 0 75.584 0 37.76 37.76 0 0 0-75.52 0z" fill="#707693" p-id="21533"></path></svg>